#N canvas -8 -8 1920 1037 12;
#X obj 584 772 osc~;
#X obj 666 830 vline~;
#X floatatom 583 703 5 0 0 0 - - -;
#X obj 656 1029 dac~;
#X obj 620 932 *~;
#X obj 850 440 hsl 128 15 0 100 0 0 empty empty velocity(override)
-2 -8 0 10 -4034 -1 -1 0 1;
#X floatatom 849 464 5 0 0 0 - - -;
#X obj 849 549 / 100;
#X floatatom 907 607 5 0 0 0 - - -;
#X obj 907 549 - 100;
#X obj 907 576 * -1;
#X obj 907 643 * 2;
#X obj 956 550 * 10;
#X obj 815 728 pack f f f f;
#X obj 857 683 t b f;
#X obj 907 681 t b f;
#X obj 956 685 t b f;
#X msg 689 780 \$1 \$2 \, 0 \$3 \$4;
#X obj 785 847 noise~;
#X obj 662 985 +~;
#X obj 734 938 *~;
#X obj 697 887 /~ 10;
#X obj 781 890 bp~ 2000 2;
#X obj 27 88 hsl 128 15 0 100 0 0 empty empty height_threshold -2 -8
0 10 -4034 -1 -1 0 1;
#X floatatom 21 145 5 0 0 0 - - -;
#X obj 37 210 bng 15 250 50 0 empty empty empty 17 7 0 10 -262144 -1
-1;
#X obj 535 118 text define -k TOF_data;
#A set 90 \; 90 \;;
#X msg 514 55 read distance_velocity.txt;
#X obj 530 181 t b p;
#X obj 530 233 text get -s text t;
#X msg 530 208 0;
#X obj 530 258 list trim;
#X obj 782 35 bng 15 250 50 0 empty empty empty 17 7 0 10 -262144 -1
-1;
#X msg 445 48 clear;
#X obj 708 181 t b p;
#X obj 708 233 text get -s text t;
#X obj 708 258 list trim;
#X msg 708 208 1;
#X floatatom 525 300 5 0 0 0 distance - -;
#X floatatom 710 304 5 0 0 0 velocity - -;
#X obj -6 180 <;
#X obj 857 29 metro 50;
#X msg 737 8 1;
#X msg 787 7 0;
#X obj 84 181 *;
#X obj 743 387 bng 15 250 50 0 empty empty empty 17 7 0 10 -262144
-1 -1;
#X obj 1252 357 hsl 128 15 0 100 0 0 empty empty velocity(override)
-2 -8 0 10 -4034 -1 -1 0 1;
#X floatatom 1413 606 5 0 0 0 - - -;
#X obj 1420 404 hsl 128 15 0 100 0 0 empty empty height_threshold -2
-8 0 10 -4034 -1 -1 5000 1;
#X floatatom 1414 461 5 0 0 0 - - -;
#X obj 1392 528 bng 15 250 50 0 empty empty empty 17 7 0 10 -262144
-1 -1;
#X floatatom 1104 442 5 0 0 0 distance - -;
#X floatatom 1259 392 5 0 0 0 velocity - -;
#X obj 1387 496 <;
#X obj 1288 554 *;
#X obj 1325 678 *;
#X obj 1130 713 osc~;
#X floatatom 1130 644 5 0 0 0 - - -;
#X obj 1331 865 dac~;
#X obj 1295 768 *~;
#X obj 1455 683 noise~;
#X obj 1337 821 +~;
#X obj 1409 774 *~;
#X obj 1456 726 bp~ 2000 2;
#X obj 1353 710 / 10;
#X obj 1530 171 value inSnow;
#X msg 1530 133 0;
#X obj 1459 515 expr $f1 + inSnow;
#X obj 1423 247 expr inSnow > 1;
#X obj 1423 285 * 2;
#X obj 1423 318 value inSnow;
#X obj 1458 582 value inSnow;
#X msg 1597 318 0;
#X obj 1597 281 sel 1;
#X obj 1579 639 *;
#X obj 1688 730 osc~;
#X obj 1770 788 vline~;
#X floatatom 1687 661 5 0 0 0 - - -;
#X obj 1760 987 dac~;
#X obj 1724 890 *~;
#X obj 1954 433 hsl 128 15 0 100 0 0 empty empty velocity(override)
-2 -8 0 10 -4034 -1 -1 0 1;
#X floatatom 2011 565 5 0 0 0 - - -;
#X obj 2011 507 - 100;
#X obj 2011 534 * -1;
#X obj 2011 601 * 2;
#X obj 2060 508 * 10;
#X obj 1919 686 pack f f f f;
#X obj 1961 641 t b f;
#X obj 2011 639 t b f;
#X obj 2060 643 t b f;
#X msg 1793 738 \$1 \$2 \, 0 \$3 \$4;
#X obj 1889 805 noise~;
#X obj 1766 943 +~;
#X obj 1838 896 *~;
#X obj 1801 845 /~ 10;
#X obj 1885 848 bp~ 2000 2;
#X obj 1241 497 value velocity;
#X obj 1951 468 value velocity;
#X obj 1951 507 / 500;
#X obj 1597 245 expr inSnow == 1;
#X obj 1458 551 *;
#X obj 1538 610 bng 15 250 50 0 empty empty empty 17 7 0 10 -262144
-1 -1;
#X obj 525 352 value distance;
#X obj 866 179 t b p;
#X obj 866 231 text get -s text t;
#X obj 866 256 list trim;
#X floatatom 866 290 5 0 0 0 zone - -;
#X msg 866 206 2;
#X obj 866 321 value zone;
#X obj 722 472 expr zone == 0;
#X obj 849 507 *;
#X obj 1244 441 *;
#X obj 1300 397 expr zone == 1;
#X msg 1644 132 1;
#X obj 1644 170 value zone;
#X obj 1104 411 expr distance;
#X obj 1108 361 metro 50;
#X msg 1102 315 1;
#X msg 1152 314 0;
#X obj 666 443 metro 50;
#X msg 660 397 1;
#X msg 710 396 0;
#X connect 0 0 4 0;
#X connect 1 0 4 1;
#X connect 1 0 21 0;
#X connect 2 0 0 0;
#X connect 4 0 19 0;
#X connect 5 0 6 0;
#X connect 6 0 110 1;
#X connect 7 0 13 0;
#X connect 8 0 11 0;
#X connect 8 0 14 0;
#X connect 9 0 10 0;
#X connect 10 0 8 0;
#X connect 11 0 15 0;
#X connect 12 0 16 0;
#X connect 13 0 17 0;
#X connect 14 0 13 0;
#X connect 14 1 13 1;
#X connect 15 0 13 0;
#X connect 15 1 13 2;
#X connect 16 0 13 0;
#X connect 16 1 13 3;
#X connect 17 0 1 0;
#X connect 18 0 22 0;
#X connect 19 0 3 0;
#X connect 19 0 3 1;
#X connect 20 0 19 1;
#X connect 21 0 20 0;
#X connect 22 0 20 1;
#X connect 23 0 24 0;
#X connect 24 0 40 1;
#X connect 24 0 44 0;
#X connect 24 0 44 1;
#X connect 26 0 28 0;
#X connect 26 0 34 0;
#X connect 26 0 103 0;
#X connect 27 0 26 0;
#X connect 28 0 30 0;
#X connect 28 1 29 3;
#X connect 29 0 31 0;
#X connect 30 0 29 0;
#X connect 31 0 38 0;
#X connect 32 0 26 0;
#X connect 32 0 27 0;
#X connect 32 0 68 0;
#X connect 32 0 99 0;
#X connect 33 0 26 0;
#X connect 34 0 37 0;
#X connect 34 1 35 3;
#X connect 35 0 36 0;
#X connect 36 0 39 0;
#X connect 37 0 35 0;
#X connect 38 0 102 0;
#X connect 39 0 45 0;
#X connect 39 0 6 0;
#X connect 39 0 52 0;
#X connect 40 0 25 0;
#X connect 41 0 32 0;
#X connect 42 0 41 0;
#X connect 43 0 41 0;
#X connect 45 0 6 0;
#X connect 46 0 52 0;
#X connect 47 0 74 0;
#X connect 48 0 49 0;
#X connect 49 0 53 1;
#X connect 50 0 47 0;
#X connect 51 0 53 0;
#X connect 51 0 55 0;
#X connect 52 0 111 0;
#X connect 53 0 50 0;
#X connect 53 0 54 1;
#X connect 53 0 67 0;
#X connect 53 0 100 0;
#X connect 54 0 47 0;
#X connect 55 0 64 0;
#X connect 55 0 59 1;
#X connect 56 0 59 0;
#X connect 57 0 56 0;
#X connect 59 0 61 0;
#X connect 60 0 63 0;
#X connect 61 0 58 0;
#X connect 61 0 58 1;
#X connect 62 0 61 1;
#X connect 63 0 62 1;
#X connect 64 0 62 0;
#X connect 66 0 65 0;
#X connect 67 0 100 1;
#X connect 68 0 69 0;
#X connect 69 0 70 0;
#X connect 71 0 101 0;
#X connect 72 0 74 1;
#X connect 73 0 72 0;
#X connect 73 0 97 0;
#X connect 74 0 55 1;
#X connect 75 0 79 0;
#X connect 76 0 79 1;
#X connect 76 0 94 0;
#X connect 77 0 75 0;
#X connect 79 0 92 0;
#X connect 80 0 97 0;
#X connect 81 0 84 0;
#X connect 81 0 87 0;
#X connect 82 0 83 0;
#X connect 83 0 81 0;
#X connect 84 0 88 0;
#X connect 85 0 89 0;
#X connect 86 0 90 0;
#X connect 87 0 86 0;
#X connect 87 1 86 1;
#X connect 88 0 86 0;
#X connect 88 1 86 2;
#X connect 89 0 86 0;
#X connect 89 1 86 3;
#X connect 90 0 76 0;
#X connect 91 0 95 0;
#X connect 92 0 78 0;
#X connect 92 0 78 1;
#X connect 93 0 92 1;
#X connect 94 0 93 0;
#X connect 95 0 93 1;
#X connect 96 0 54 0;
#X connect 97 0 82 0;
#X connect 97 0 85 0;
#X connect 97 0 98 0;
#X connect 98 0 86 0;
#X connect 99 0 73 0;
#X connect 100 0 71 0;
#X connect 101 0 99 0;
#X connect 103 0 107 0;
#X connect 103 1 104 3;
#X connect 104 0 105 0;
#X connect 105 0 106 0;
#X connect 106 0 108 0;
#X connect 107 0 104 0;
#X connect 109 0 110 0;
#X connect 110 0 7 0;
#X connect 110 0 9 0;
#X connect 110 0 12 0;
#X connect 111 0 96 0;
#X connect 112 0 111 1;
#X connect 113 0 114 0;
#X connect 115 0 51 0;
#X connect 116 0 115 0;
#X connect 117 0 116 0;
#X connect 118 0 116 0;
#X connect 119 0 109 0;
#X connect 120 0 119 0;
#X connect 121 0 119 0;
