#N canvas 2 99 1265 931 10;
#X obj 264 587 *~;
#X floatatom 360 499 5 0 0 0 - - -, f 5;
#X obj 257 514 osc~;
#X floatatom 208 331 5 0 0 0 - - -, f 5;
#X obj 227 377 select 1;
#X msg 222 423 200;
#X msg 290 424 0;
#X obj 247 133 netreceive 3000;
#X obj 245 199 route 0 1;
#X obj 445 588 *~;
#X floatatom 564 419 5 0 0 0 - - -, f 5;
#X obj 438 515 osc~;
#X floatatom 389 332 5 0 0 0 - - -, f 5;
#X obj 408 378 select 1;
#X msg 403 424 200;
#X msg 471 425 0;
#X obj 252 632 dac~ 1;
#X obj 433 633 dac~ 2;
#X connect 0 0 16 0;
#X connect 1 0 0 1;
#X connect 2 0 0 0;
#X connect 3 0 4 0;
#X connect 4 0 5 0;
#X connect 4 1 6 0;
#X connect 5 0 2 0;
#X connect 6 0 2 0;
#X connect 7 0 8 0;
#X connect 8 0 3 0;
#X connect 8 0 1 0;
#X connect 8 1 12 0;
#X connect 8 1 10 0;
#X connect 9 0 17 0;
#X connect 10 0 9 1;
#X connect 11 0 9 0;
#X connect 12 0 13 0;
#X connect 13 0 14 0;
#X connect 13 1 15 0;
#X connect 14 0 11 0;
#X connect 15 0 11 0;
