#N canvas -8 -8 1920 1037 12;
#X obj 347 699 osc~;
#X obj 429 757 vline~;
#X floatatom 346 630 5 0 0 0 - - -;
#X obj 419 956 dac~;
#X obj 383 859 *~;
#X obj 699 704 random 100;
#X obj 768 794 / 100;
#X obj 699 683 bng 15 250 50 0 empty empty empty 17 7 0 10 -262144
-1 -1;
#X obj 613 402 hsl 128 15 0 100 0 0 empty empty velocity -2 -8 0 10
-4034 -1 -1 0 1;
#X floatatom 612 426 5 0 0 0 - - -;
#X obj 612 476 / 100;
#X obj 688 840 osc~;
#X obj 770 898 vline~;
#X floatatom 687 771 5 0 0 0 - - -;
#X obj 702 1012 dac~;
#X obj 724 954 *~;
#X floatatom 670 534 5 0 0 0 - - -;
#X obj 670 476 - 100;
#X obj 670 503 * -1;
#X floatatom 768 768 5 0 100 0 - - -;
#X obj 770 736 bng 15 250 50 0 empty empty empty 17 7 0 10 -262144
-1 -1;
#X msg 769 860 \$1 83 \, 0 160 10;
#X obj 670 570 * 2;
#X obj 719 477 * 10;
#X obj 578 655 pack f f f f;
#X obj 620 610 t b f;
#X obj 670 608 t b f;
#X obj 719 612 t b f;
#X msg 452 707 \$1 \$2 \, 0 \$3 \$4;
#X obj 548 774 noise~;
#X obj 425 912 +~;
#X obj 497 865 *~;
#X obj 460 814 /~ 10;
#X obj 544 817 bp~ 2000 2;
#X obj 430 155 text define -k TOF_data;
#A set 90 \; 90 \;;
#X msg 409 92 read distance_velocity.txt;
#X obj 425 218 t b p;
#X obj 425 270 text get -s text t;
#X msg 425 245 0;
#X obj 425 295 list trim;
#X obj 677 72 bng 15 250 50 0 empty empty empty 17 7 0 10 -262144 -1
-1;
#X msg 340 85 clear;
#X obj 603 218 t b p;
#X obj 603 270 text get -s text t;
#X obj 603 295 list trim;
#X msg 603 245 1;
#X floatatom 420 337 5 0 0 0 distance - -;
#X floatatom 605 341 5 0 0 0 velocity - -;
#X obj 752 66 metro 50;
#X msg 632 45 1;
#X msg 682 44 0;
#X obj 761 216 t b p;
#X obj 761 268 text get -s text t;
#X obj 761 293 list trim;
#X floatatom 761 327 5 0 0 0 zone - -;
#X msg 761 243 2;
#X obj 451 385 < 3;
#X obj 523 388 *;
#X connect 0 0 4 0;
#X connect 1 0 4 1;
#X connect 1 0 32 0;
#X connect 2 0 0 0;
#X connect 4 0 30 0;
#X connect 6 0 21 0;
#X connect 7 0 5 0;
#X connect 8 0 9 0;
#X connect 9 0 10 0;
#X connect 9 0 17 0;
#X connect 9 0 23 0;
#X connect 10 0 24 0;
#X connect 11 0 15 0;
#X connect 12 0 15 1;
#X connect 13 0 11 0;
#X connect 15 0 14 0;
#X connect 15 0 14 1;
#X connect 16 0 22 0;
#X connect 16 0 25 0;
#X connect 17 0 18 0;
#X connect 18 0 16 0;
#X connect 19 0 6 0;
#X connect 20 0 19 0;
#X connect 21 0 12 0;
#X connect 22 0 26 0;
#X connect 23 0 27 0;
#X connect 24 0 28 0;
#X connect 25 0 24 0;
#X connect 25 1 24 1;
#X connect 26 0 24 0;
#X connect 26 1 24 2;
#X connect 27 0 24 0;
#X connect 27 1 24 3;
#X connect 28 0 1 0;
#X connect 29 0 33 0;
#X connect 30 0 3 0;
#X connect 30 0 3 1;
#X connect 31 0 30 1;
#X connect 32 0 31 0;
#X connect 33 0 31 1;
#X connect 34 0 36 0;
#X connect 34 0 42 0;
#X connect 34 0 51 0;
#X connect 35 0 34 0;
#X connect 36 0 38 0;
#X connect 36 1 37 3;
#X connect 37 0 39 0;
#X connect 38 0 37 0;
#X connect 39 0 46 0;
#X connect 40 0 34 0;
#X connect 40 0 35 0;
#X connect 41 0 34 0;
#X connect 42 0 45 0;
#X connect 42 1 43 3;
#X connect 43 0 44 0;
#X connect 44 0 47 0;
#X connect 45 0 43 0;
#X connect 46 0 56 0;
#X connect 47 0 57 1;
#X connect 48 0 40 0;
#X connect 49 0 48 0;
#X connect 50 0 48 0;
#X connect 51 0 55 0;
#X connect 51 1 52 3;
#X connect 52 0 53 0;
#X connect 53 0 54 0;
#X connect 55 0 52 0;
#X connect 56 0 57 0;
#X connect 57 0 9 0;
