#N canvas -8 -8 1920 1037 12;
#X obj 342 321 osc~;
#X obj 424 379 vline~;
#X floatatom 341 252 5 0 0 0 - - -;
#X obj 414 578 dac~;
#X obj 378 481 *~;
#X obj 694 326 random 100;
#X obj 763 416 / 100;
#X obj 694 305 bng 15 250 50 0 empty empty empty 17 7 0 10 -262144
-1 -1;
#X obj 608 24 hsl 128 15 0 100 0 0 empty empty velocity -2 -8 0 10
-4034 -1 -1 20500 1;
#X floatatom 607 48 5 0 0 0 - - -;
#X obj 607 98 / 100;
#X obj 683 462 osc~;
#X obj 765 520 vline~;
#X floatatom 682 393 5 0 0 0 - - -;
#X obj 697 634 dac~;
#X obj 719 576 *~;
#X floatatom 665 156 5 0 0 0 - - -;
#X obj 665 98 - 100;
#X obj 665 125 * -1;
#X floatatom 763 390 5 0 100 0 - - -;
#X obj 765 358 bng 15 250 50 0 empty empty empty 17 7 0 10 -262144
-1 -1;
#X msg 764 482 \$1 83 \, 0 160 10;
#X obj 665 192 * 2;
#X obj 714 99 * 10;
#X obj 573 277 pack f f f f;
#X obj 615 232 t b f;
#X obj 665 230 t b f;
#X obj 714 234 t b f;
#X msg 447 329 \$1 \$2 \, 0 \$3 \$4;
#X obj 543 396 noise~;
#X obj 420 534 +~;
#X obj 492 487 *~;
#X obj 455 436 /~ 10;
#X obj 539 439 bp~ 2000 2;
#X connect 0 0 4 0;
#X connect 1 0 4 1;
#X connect 1 0 32 0;
#X connect 2 0 0 0;
#X connect 4 0 30 0;
#X connect 6 0 21 0;
#X connect 7 0 5 0;
#X connect 8 0 9 0;
#X connect 9 0 10 0;
#X connect 9 0 17 0;
#X connect 9 0 23 0;
#X connect 10 0 24 0;
#X connect 11 0 15 0;
#X connect 12 0 15 1;
#X connect 13 0 11 0;
#X connect 15 0 14 0;
#X connect 15 0 14 1;
#X connect 16 0 22 0;
#X connect 16 0 25 0;
#X connect 17 0 18 0;
#X connect 18 0 16 0;
#X connect 19 0 6 0;
#X connect 20 0 19 0;
#X connect 21 0 12 0;
#X connect 22 0 26 0;
#X connect 23 0 27 0;
#X connect 24 0 28 0;
#X connect 25 0 24 0;
#X connect 25 1 24 1;
#X connect 26 0 24 0;
#X connect 26 1 24 2;
#X connect 27 0 24 0;
#X connect 27 1 24 3;
#X connect 28 0 1 0;
#X connect 29 0 33 0;
#X connect 30 0 3 0;
#X connect 30 0 3 1;
#X connect 31 0 30 1;
#X connect 32 0 31 0;
#X connect 33 0 31 1;
